<svg width="284" height="284" viewBox="0 0 284 284" fill="none" xmlns="http://www.w3.org/2000/svg">
<circle cx="142" cy="142" r="142" fill="#204F2B"/>
<path d="M93.5 67.9151V208.5C93.5 211.814 96.1863 214.5 99.5 214.5H165C168.314 214.5 171 211.814 171 208.5V63.9043C171 60.8326 168.68 58.257 165.625 57.9369L120.084 53.1659C119.046 53.0572 117.998 53.2211 117.042 53.6414L97.0836 62.4232C94.9058 63.3814 93.5 65.5359 93.5 67.9151Z" fill="#DBDBDC" stroke="#031540"/>
<path d="M126 134.667V208.5C126 211.814 128.686 214.5 132 214.5H203.5C206.814 214.5 209.5 211.814 209.5 208.5V132.899C209.5 129.829 207.183 127.255 204.131 126.932L158.568 122.113C157.861 122.038 157.148 122.089 156.46 122.264L130.523 128.851C127.863 129.527 126 131.922 126 134.667Z" fill="#DBDBDC" stroke="#031540"/>
<path d="M106.278 241V229.364H110.54C111.366 229.364 112.049 229.5 112.591 229.773C113.133 230.042 113.538 230.407 113.807 230.869C114.076 231.328 114.21 231.845 114.21 232.42C114.21 232.905 114.121 233.314 113.943 233.648C113.765 233.977 113.527 234.242 113.227 234.443C112.932 234.64 112.606 234.784 112.25 234.875V234.989C112.636 235.008 113.013 235.133 113.381 235.364C113.752 235.591 114.059 235.915 114.301 236.335C114.544 236.756 114.665 237.267 114.665 237.869C114.665 238.464 114.525 238.998 114.244 239.472C113.968 239.941 113.54 240.314 112.96 240.591C112.381 240.864 111.64 241 110.739 241H106.278ZM108.034 239.494H110.568C111.409 239.494 112.011 239.331 112.375 239.006C112.739 238.68 112.92 238.273 112.92 237.784C112.92 237.417 112.828 237.08 112.642 236.773C112.456 236.466 112.191 236.222 111.847 236.04C111.506 235.858 111.1 235.767 110.631 235.767H108.034V239.494ZM108.034 234.398H110.386C110.78 234.398 111.134 234.322 111.449 234.17C111.767 234.019 112.019 233.807 112.205 233.534C112.394 233.258 112.489 232.932 112.489 232.557C112.489 232.076 112.32 231.672 111.983 231.347C111.646 231.021 111.129 230.858 110.432 230.858H108.034V234.398ZM119.307 241V229.364H121.063V239.489H126.336V241H119.307ZM134.665 241H130.898V229.364H134.785C135.925 229.364 136.904 229.597 137.722 230.062C138.54 230.525 139.167 231.189 139.603 232.057C140.042 232.92 140.262 233.956 140.262 235.165C140.262 236.377 140.04 237.419 139.597 238.29C139.158 239.161 138.522 239.831 137.688 240.301C136.855 240.767 135.847 241 134.665 241ZM132.654 239.466H134.569C135.455 239.466 136.192 239.299 136.779 238.966C137.366 238.629 137.806 238.142 138.097 237.506C138.389 236.866 138.535 236.085 138.535 235.165C138.535 234.252 138.389 233.477 138.097 232.841C137.809 232.205 137.379 231.722 136.807 231.392C136.236 231.062 135.525 230.898 134.677 230.898H132.654V239.466ZM145.005 241V229.364H149.153C150.055 229.364 150.803 229.519 151.397 229.83C151.996 230.14 152.443 230.57 152.738 231.119C153.034 231.665 153.181 232.295 153.181 233.011C153.181 233.723 153.032 234.35 152.733 234.892C152.437 235.43 151.99 235.848 151.392 236.148C150.797 236.447 150.049 236.597 149.147 236.597H146.005V235.085H148.988C149.556 235.085 150.019 235.004 150.375 234.841C150.734 234.678 150.998 234.441 151.164 234.131C151.331 233.82 151.414 233.447 151.414 233.011C151.414 232.572 151.329 232.191 151.159 231.869C150.992 231.547 150.729 231.301 150.369 231.131C150.013 230.956 149.545 230.869 148.966 230.869H146.761V241H145.005ZM150.75 235.75L153.625 241H151.625L148.806 235.75H150.75ZM164.224 232.42C164.164 231.883 163.914 231.466 163.474 231.17C163.035 230.871 162.482 230.722 161.815 230.722C161.338 230.722 160.925 230.797 160.577 230.949C160.228 231.097 159.957 231.301 159.764 231.562C159.575 231.82 159.48 232.114 159.48 232.443C159.48 232.72 159.544 232.958 159.673 233.159C159.806 233.36 159.978 233.528 160.19 233.665C160.406 233.797 160.637 233.909 160.883 234C161.13 234.087 161.366 234.159 161.594 234.216L162.73 234.511C163.101 234.602 163.482 234.725 163.872 234.881C164.262 235.036 164.624 235.241 164.957 235.494C165.291 235.748 165.56 236.062 165.764 236.438C165.972 236.812 166.077 237.261 166.077 237.784C166.077 238.443 165.906 239.028 165.565 239.54C165.228 240.051 164.738 240.455 164.094 240.75C163.454 241.045 162.679 241.193 161.77 241.193C160.899 241.193 160.145 241.055 159.508 240.778C158.872 240.502 158.374 240.11 158.014 239.602C157.654 239.091 157.455 238.485 157.418 237.784H159.179C159.213 238.205 159.349 238.555 159.588 238.835C159.83 239.112 160.139 239.318 160.514 239.455C160.893 239.587 161.308 239.653 161.758 239.653C162.255 239.653 162.696 239.576 163.082 239.42C163.472 239.261 163.779 239.042 164.003 238.761C164.226 238.477 164.338 238.146 164.338 237.767C164.338 237.422 164.24 237.14 164.043 236.92C163.849 236.701 163.586 236.519 163.253 236.375C162.923 236.231 162.55 236.104 162.133 235.994L160.758 235.619C159.827 235.366 159.088 234.992 158.543 234.5C158.001 234.008 157.73 233.356 157.73 232.545C157.73 231.875 157.912 231.29 158.276 230.79C158.639 230.29 159.132 229.902 159.753 229.625C160.374 229.345 161.075 229.205 161.855 229.205C162.643 229.205 163.338 229.343 163.94 229.619C164.546 229.896 165.024 230.277 165.372 230.761C165.721 231.242 165.902 231.795 165.918 232.42H164.224ZM171.718 241.108C171.407 241.108 171.14 240.998 170.916 240.778C170.693 240.555 170.581 240.286 170.581 239.972C170.581 239.661 170.693 239.396 170.916 239.176C171.14 238.953 171.407 238.841 171.718 238.841C172.028 238.841 172.295 238.953 172.519 239.176C172.742 239.396 172.854 239.661 172.854 239.972C172.854 240.18 172.801 240.371 172.695 240.545C172.593 240.716 172.456 240.852 172.286 240.955C172.115 241.057 171.926 241.108 171.718 241.108ZM178.809 241H176.945L181.133 229.364H183.161L187.349 241H185.485L182.195 231.477H182.104L178.809 241ZM179.121 236.443H185.167V237.92H179.121V236.443ZM193.345 229.364V241H191.589V229.364H193.345Z" fill="white"/>
</svg>
